<?xml version="1.0" encoding="UTF-8" standalone="no"?><!DOCTYPE svg PUBLIC "-//W3C//DTD SVG 1.1//EN" "http://www.w3.org/Graphics/SVG/1.1/DTD/svg11.dtd"><svg width="100%" height="100%" viewBox="0 0 46 59" version="1.1" xmlns="http://www.w3.org/2000/svg" xmlns:xlink="http://www.w3.org/1999/xlink" xml:space="preserve" style="fill-rule:evenodd;clip-rule:evenodd;stroke-linejoin:round;stroke-miterlimit:1.41421;"><path id="Pause-Icon" d="M38.805,55.08l-6.51,0c-1.797,0 -3.255,-1.457 -3.255,-3.255l0,-45.57c0,-1.798 1.458,-3.255 3.255,-3.255l6.51,0c1.798,0 3.255,1.457 3.255,3.255l0,45.57c0,1.798 -1.457,3.255 -3.255,3.255Zm-26.04,0l-6.51,0c-1.798,0 -3.255,-1.457 -3.255,-3.255l0,-45.57c0,-1.798 1.457,-3.255 3.255,-3.255l6.51,0c1.798,0 3.255,1.457 3.255,3.255l0,45.57c0,1.798 -1.457,3.255 -3.255,3.255Z" style="fill:none;stroke:url(#_Linear1);stroke-width:4px;"/><defs><linearGradient id="_Linear1" x1="0" y1="0" x2="1" y2="0" gradientUnits="userSpaceOnUse" gradientTransform="matrix(39.0602,0,0,52.0795,3,29.0398)"><stop offset="0%" style="stop-color:#ff2a68;stop-opacity:1"/><stop offset="100%" style="stop-color:#ff5d3a;stop-opacity:1"/></linearGradient></defs></svg>