<?xml version="1.0" encoding="UTF-8" standalone="no"?><!DOCTYPE svg PUBLIC "-//W3C//DTD SVG 1.1//EN" "http://www.w3.org/Graphics/SVG/1.1/DTD/svg11.dtd"><svg width="100%" height="100%" viewBox="0 0 1000 1000" version="1.1" xmlns="http://www.w3.org/2000/svg" xmlns:xlink="http://www.w3.org/1999/xlink" xml:space="preserve" style="fill-rule:evenodd;clip-rule:evenodd;stroke-linejoin:round;stroke-miterlimit:1.41421;"><path d="M943.5,915.2c-22.7,-155.9 -127.3,-275.2 -268.1,-335.1c83,-56.1 137.6,-150.8 137.6,-258.3c0,-172.2 -140.1,-311.8 -313,-311.8c-172.9,0 -313,139.6 -313,311.8c0,107.5 54.6,202.2 137.6,258.3c-140.8,59.9 -246.4,175.7 -269.1,331.6c-0.814,5.59 -2.7,26.7 -2.7,33.8c0,24.6 20,44.5 44.7,44.5c24.7,0 44.7,-19.9 44.7,-44.5l1,-13c0,-196.8 159.2,-298.9 356.7,-298.9c197.6,0 356.95,108.75 356.95,305.65l0.75,6.25c0,24.6 20,44.5 44.7,44.5c24.7,0 44.7,-19.9 44.7,-44.5c0.1,-7.2 -2.633,-24.344 -3.5,-30.3Zm-443.5,-370.7c-123.5,0 -223.6,-99.7 -223.6,-222.7c0,-123 100.1,-222.7 223.6,-222.7c123.5,0 223.6,99.7 223.6,222.7c0,123 -100.1,222.7 -223.6,222.7Z" style="fill:url(#_Linear1);fill-rule:nonzero;"/><defs><linearGradient id="_Linear1" x1="0" y1="0" x2="1" y2="0" gradientUnits="userSpaceOnUse" gradientTransform="matrix(894.203,0,0,980,52.8,500)"><stop offset="0%" style="stop-color:#ff2a67;stop-opacity:1"/><stop offset="100%" style="stop-color:#ff5e3b;stop-opacity:1"/></linearGradient></defs></svg>