<?xml version="1.0" encoding="UTF-8" standalone="no"?><!DOCTYPE svg PUBLIC "-//W3C//DTD SVG 1.1//EN" "http://www.w3.org/Graphics/SVG/1.1/DTD/svg11.dtd"><svg width="100%" height="100%" viewBox="0 0 60 60" version="1.1" xmlns="http://www.w3.org/2000/svg" xmlns:xlink="http://www.w3.org/1999/xlink" xml:space="preserve" style="fill-rule:evenodd;clip-rule:evenodd;stroke-linejoin:round;stroke-miterlimit:1.41421;"><path id="Reload-Icon" d="M54.072,22.949l-6.829,0l-11.945,0l7.325,-7.292c-3.546,-3.531 -8.446,-5.715 -13.857,-5.715c-9.976,0 -18.204,7.423 -19.433,17.023c0,0 -0.374,2.488 -3.202,2.488c-1.803,0 -3.264,-1.456 -3.264,-3.251c0,-0.247 0.029,-0.485 0.081,-0.716c1.92,-12.483 12.743,-22.048 25.818,-22.048c7.215,0 13.748,2.912 18.476,7.62l7.653,-7.62l0,19.511l-0.823,0Zm-43.555,13.008l11.945,0l-7.325,7.293c3.546,3.531 8.446,5.714 13.857,5.714c9.976,0 18.204,-7.423 19.433,-17.023c0,0 0.374,-2.488 3.202,-2.488c1.803,0 3.264,1.456 3.264,3.252c0,0.246 -0.029,0.485 -0.081,0.715c-1.92,12.484 -12.743,22.048 -25.818,22.048c-7.215,0 -13.748,-2.912 -18.476,-7.619l-7.653,7.619l0,-19.511l7.652,0Z" style="fill:none;stroke:url(#_Linear1);stroke-width:3px;"/><defs><linearGradient id="_Linear1" x1="0" y1="0" x2="1" y2="0" gradientUnits="userSpaceOnUse" gradientTransform="matrix(52.0298,0,0,52.0302,2.8651,29.4532)"><stop offset="0%" style="stop-color:#ff2b68;stop-opacity:1"/><stop offset="100%" style="stop-color:#ff5d3b;stop-opacity:1"/></linearGradient></defs></svg>